<svg id="visual" viewBox="0 0 960 300" width="960" height="300" xmlns="http://www.w3.org/2000/svg" xmlns:xlink="http://www.w3.org/1999/xlink" version="1.1"><rect x="0" y="0" width="960" height="300" fill="#202731"></rect><path d="M0 144L32 151.7C64 159.3 128 174.7 192 170.5C256 166.3 320 142.7 384 128.8C448 115 512 111 576 119.8C640 128.7 704 150.3 768 158.2C832 166 896 160 928 157L960 154L960 0L928 0C896 0 832 0 768 0C704 0 640 0 576 0C512 0 448 0 384 0C320 0 256 0 192 0C128 0 64 0 32 0L0 0Z" fill="#ff6f61"></path><path d="M0 130L32 131.7C64 133.3 128 136.7 192 137.2C256 137.7 320 135.3 384 129C448 122.7 512 112.3 576 112.5C640 112.7 704 123.3 768 131.8C832 140.3 896 146.7 928 149.8L960 153L960 0L928 0C896 0 832 0 768 0C704 0 640 0 576 0C512 0 448 0 384 0C320 0 256 0 192 0C128 0 64 0 32 0L0 0Z" fill="#f76455"></path><path d="M0 111L32 111C64 111 128 111 192 113.7C256 116.3 320 121.7 384 119.2C448 116.7 512 106.3 576 97.2C640 88 704 80 768 79.5C832 79 896 86 928 89.5L960 93L960 0L928 0C896 0 832 0 768 0C704 0 640 0 576 0C512 0 448 0 384 0C320 0 256 0 192 0C128 0 64 0 32 0L0 0Z" fill="#ee5849"></path><path d="M0 73L32 71.7C64 70.3 128 67.7 192 67C256 66.3 320 67.7 384 66.2C448 64.7 512 60.3 576 62.8C640 65.3 704 74.7 768 79C832 83.3 896 82.7 928 82.3L960 82L960 0L928 0C896 0 832 0 768 0C704 0 640 0 576 0C512 0 448 0 384 0C320 0 256 0 192 0C128 0 64 0 32 0L0 0Z" fill="#e64c3d"></path><path d="M0 46L32 48.8C64 51.7 128 57.3 192 57.5C256 57.7 320 52.3 384 50.2C448 48 512 49 576 47.5C640 46 704 42 768 40.8C832 39.7 896 41.3 928 42.2L960 43L960 0L928 0C896 0 832 0 768 0C704 0 640 0 576 0C512 0 448 0 384 0C320 0 256 0 192 0C128 0 64 0 32 0L0 0Z" fill="#dd3f31"></path></svg>