<svg id="visual" viewBox="0 0 960 300" width="960" height="300" xmlns="http://www.w3.org/2000/svg" xmlns:xlink="http://www.w3.org/1999/xlink" version="1.1"><rect x="0" y="0" width="960" height="300" fill="#202731"></rect><path d="M0 227L14.5 215.5C29 204 58 181 87.2 185.5C116.3 190 145.7 222 174.8 228C204 234 233 214 262 198.3C291 182.7 320 171.3 349 171.8C378 172.3 407 184.7 436.2 191.8C465.3 199 494.7 201 523.8 205C553 209 582 215 611 220.7C640 226.3 669 231.7 698 230C727 228.3 756 219.7 785.2 211.7C814.3 203.7 843.7 196.3 872.8 189.8C902 183.3 931 177.7 945.5 174.8L960 172L960 0L945.5 0C931 0 902 0 872.8 0C843.7 0 814.3 0 785.2 0C756 0 727 0 698 0C669 0 640 0 611 0C582 0 553 0 523.8 0C494.7 0 465.3 0 436.2 0C407 0 378 0 349 0C320 0 291 0 262 0C233 0 204 0 174.8 0C145.7 0 116.3 0 87.2 0C58 0 29 0 14.5 0L0 0Z" fill="#c8247b"></path><path d="M0 101L14.5 110.5C29 120 58 139 87.2 144.2C116.3 149.3 145.7 140.7 174.8 134.3C204 128 233 124 262 120C291 116 320 112 349 117.7C378 123.3 407 138.7 436.2 136.3C465.3 134 494.7 114 523.8 112.8C553 111.7 582 129.3 611 132C640 134.7 669 122.3 698 124C727 125.7 756 141.3 785.2 151.5C814.3 161.7 843.7 166.3 872.8 162.3C902 158.3 931 145.7 945.5 139.3L960 133L960 0L945.5 0C931 0 902 0 872.8 0C843.7 0 814.3 0 785.2 0C756 0 727 0 698 0C669 0 640 0 611 0C582 0 553 0 523.8 0C494.7 0 465.3 0 436.2 0C407 0 378 0 349 0C320 0 291 0 262 0C233 0 204 0 174.8 0C145.7 0 116.3 0 87.2 0C58 0 29 0 14.5 0L0 0Z" fill="#e51473"></path><path d="M0 60L14.5 55.5C29 51 58 42 87.2 51C116.3 60 145.7 87 174.8 90C204 93 233 72 262 58.3C291 44.7 320 38.3 349 45.3C378 52.3 407 72.7 436.2 76C465.3 79.3 494.7 65.7 523.8 56.8C553 48 582 44 611 53.2C640 62.3 669 84.7 698 91.5C727 98.3 756 89.7 785.2 79.8C814.3 70 843.7 59 872.8 52.7C902 46.3 931 44.7 945.5 43.8L960 43L960 0L945.5 0C931 0 902 0 872.8 0C843.7 0 814.3 0 785.2 0C756 0 727 0 698 0C669 0 640 0 611 0C582 0 553 0 523.8 0C494.7 0 465.3 0 436.2 0C407 0 378 0 349 0C320 0 291 0 262 0C233 0 204 0 174.8 0C145.7 0 116.3 0 87.2 0C58 0 29 0 14.5 0L0 0Z" fill="#ff0066"></path></svg>